<svg id="Layer_1" data-name="Layer 1" xmlns="http://www.w3.org/2000/svg" viewBox="0 0 368 227.85" fill="#fff"><title>arrow-back</title><path d="M350.2,164.4H193.6a2.25,2.25,0,0,1-1.6-3.8l51.4-51.4a21.43,21.43,0,0,0,0-30.2h0a21.43,21.43,0,0,0-30.2,0L112.8,179.6a8.69,8.69,0,0,0,0,12.3L213.3,292.4a21.43,21.43,0,0,0,30.2,0h0a21.43,21.43,0,0,0,0-30.2l-51.4-51.4a2.23,2.23,0,0,1,1.6-3.8H350.2a21.32,21.32,0,0,0,21.3-21.3h0A21.38,21.38,0,0,0,350.2,164.4Z" transform="translate(-3.5 -72.48)"/><path d="M137.5,79.8l-1.4-1.4a20.46,20.46,0,0,0-28.8,0L5.9,179.9a8.33,8.33,0,0,0,0,11.7L109.6,295.3a17.32,17.32,0,0,0,24.4,0l5.7-5.7a17.32,17.32,0,0,0,0-24.4L65.8,191.3a7.73,7.73,0,0,1,0-10.9l71.7-71.7A20.4,20.4,0,0,0,137.5,79.8Z" transform="translate(-3.5 -72.48)"/></svg>