<?xml version="1.0" encoding="utf-8"?>
<!-- Generator: Adobe Illustrator 21.0.2, SVG Export Plug-In . SVG Version: 6.00 Build 0)  -->
<svg version="1.1" id="Capa_1" xmlns="http://www.w3.org/2000/svg" xmlns:xlink="http://www.w3.org/1999/xlink" x="0px" y="0px"
	 viewBox="0 0 280.4 444.8" style="enable-background:new 0 0 280.4 444.8;" xml:space="preserve">
<g>
	<path d="M269.8,196.7L83.7,10.8C76.8,3.6,68.2,0,58,0S39.1,3.6,32.3,10.8L10.6,32.3C3.5,39.3,0,47.9,0,58c0,9.9,3.5,18.6,10.6,26
		l138.8,138.5L10.6,361.2c-7,7-10.6,15.6-10.6,25.7c0,9.9,3.5,18.6,10.6,26l21.7,21.4c7,7,15.6,10.6,25.7,10.6
		c10.1,0,18.7-3.5,25.7-10.6l186.1-185.9c7-7.4,10.6-16.1,10.6-26C280.4,212.3,276.8,203.8,269.8,196.7z"/>
</g>
</svg>
