<svg id="Layer_1" data-name="Layer 1" xmlns="http://www.w3.org/2000/svg" viewBox="0 0 492 511.92"><defs><style>.cls-1{fill:#919191;}.cls-2{fill:#3a383a;stroke:#fff;stroke-miterlimit:10;}</style></defs><title>business</title><path class="cls-1" d="M483.3,43.7H274.7v-25a18.7,18.7,0,0,0-37.4,0v25H28.7A18.74,18.74,0,0,0,10,62.4V403.3A18.74,18.74,0,0,0,28.7,422H223.5l-35.7,61.8a18.75,18.75,0,1,0,32.5,18.7L256,440.6l35.7,61.9a18.75,18.75,0,0,0,32.5-18.7L288.5,422H483.3A18.74,18.74,0,0,0,502,403.3V62.4A18.74,18.74,0,0,0,483.3,43.7ZM464.5,384.6H47.4V81.2H464.5Z" transform="translate(-10)"/><path class="cls-2" d="M159.8,197.3H88.7A18.74,18.74,0,0,0,70,216V319.6a18.74,18.74,0,0,0,18.7,18.7h71.2a18.74,18.74,0,0,0,18.7-18.7V216A18.76,18.76,0,0,0,159.8,197.3ZM141.1,301H107.4V234.8h33.7Z" transform="translate(-10)"/><path class="cls-2" d="M292.2,127.4H221a18.74,18.74,0,0,0-18.7,18.7V319.7A18.74,18.74,0,0,0,221,338.4h71.2a18.74,18.74,0,0,0,18.7-18.7V146.1A18.67,18.67,0,0,0,292.2,127.4ZM273.5,301H239.8V164.8h33.7Z" transform="translate(-10)"/><path class="cls-2" d="M423.3,154.8H352.1a18.74,18.74,0,0,0-18.7,18.7V319.6a18.74,18.74,0,0,0,18.7,18.7h71.2A18.74,18.74,0,0,0,442,319.6v-146A18.63,18.63,0,0,0,423.3,154.8ZM404.6,301H370.9V192.3h33.7Z" transform="translate(-10)"/></svg>