<?xml version="1.0" encoding="utf-8"?>
<!-- Generator: Adobe Illustrator 21.0.2, SVG Export Plug-In . SVG Version: 6.00 Build 0)  -->
<svg version="1.1" id="Capa_1" xmlns="http://www.w3.org/2000/svg" xmlns:xlink="http://www.w3.org/1999/xlink" x="0px" y="0px"
	 viewBox="0 0 35.4 34.6" style="enable-background:new 0 0 35.4 34.6;" xml:space="preserve">
<style type="text/css">
	.st0{fill:#FFFFFF;}
</style>
<g>
	<g>
		<path class="st0" d="M20.5,16.9L34,3.4c0.8-0.8,0.8-2,0-2.8c-0.8-0.8-2-0.8-2.8,0L17.7,14.1L4.2,0.6c-0.8-0.8-2-0.8-2.8,0
			s-0.8,2,0,2.8l13.5,13.5L0.6,31.2c-0.8,0.8-0.8,2,0,2.8C1,34.4,1.5,34.6,2,34.6s1-0.2,1.4-0.6l14.3-14.3L32,34
			c0.4,0.4,0.9,0.6,1.4,0.6s1-0.2,1.4-0.6c0.8-0.8,0.8-2,0-2.8L20.5,16.9z"/>
	</g>
</g>
</svg>
