<?xml version="1.0" encoding="utf-8"?>
<!-- Generator: Adobe Illustrator 21.0.2, SVG Export Plug-In . SVG Version: 6.00 Build 0)  -->
<svg version="1.1" id="Capa_1" xmlns="http://www.w3.org/2000/svg" xmlns:xlink="http://www.w3.org/1999/xlink" x="0px" y="0px"
	 viewBox="0 0 17.1 28.7" style="enable-background:new 0 0 17.1 28.7;" xml:space="preserve">
<style type="text/css">
	.st0{fill:#010002;}
</style>
<g>
	<path class="st0" d="M16,0H1.1C0.5,0,0,0.5,0,1.1v26.5c0,0.6,0.5,1.1,1.1,1.1H16c0.6,0,1.1-0.5,1.1-1.1V1.1h0C17.1,0.5,16.6,0,16,0
		z M8.6,27.5c-0.7,0-1.3-0.6-1.3-1.3c0-0.7,0.6-1.3,1.3-1.3s1.3,0.6,1.3,1.3C9.9,26.9,9.3,27.5,8.6,27.5z M14.4,21.9H2.7V3.7h11.7
		L14.4,21.9L14.4,21.9z"/>
</g>
</svg>
