<?xml version="1.0" encoding="utf-8"?>
<!-- Generator: Adobe Illustrator 21.0.2, SVG Export Plug-In . SVG Version: 6.00 Build 0)  -->
<svg version="1.1" id="Capa_1" xmlns="http://www.w3.org/2000/svg" xmlns:xlink="http://www.w3.org/1999/xlink" x="0px" y="0px"
	 viewBox="0 0 62.1 52" style="enable-background:new 0 0 62.1 52;" xml:space="preserve">
<style type="text/css">
	.st0{fill:#FFFFFF;}
</style>
<g>
	<g id="group-3svg">
		<path id="path-1_13_" class="st0" d="M20,39.9c-1.9,0-3.5-1.2-4.2-2.9l-0.5-1.4c-1.1-0.3-2.1-0.7-3.1-1.3L10.9,35
			c-2,1-4.5,0.2-5.7-1.7C4.4,32,4.4,30.5,5,29.1l0.6-1.3c-0.5-1-1-2-1.3-3.1L3,24.1c-1.8-0.6-3-2.3-3-4.2c0-1.9,1.2-3.5,2.9-4.2
			l1.4-0.5c0.2-0.5,0.4-1,0.7-1.4c0.2-0.4,0.5-0.9,0.6-1.3l-0.8-1.8C4.3,9.5,4.3,8,5.2,6.7C6.4,4.8,8.9,4,10.9,5l1.5,0.7
			c0.9-0.5,1.8-0.8,2.8-1.1l0.6-1.6C16.5,1.2,18.1,0,20,0s3.5,1.2,4.2,2.9l0.6,1.7c0.9,0.3,1.8,0.7,2.6,1.1L29.1,5
			c2-1,4.5-0.2,5.7,1.7c0.8,1.3,0.9,2.9,0.2,4.3l-0.8,1.7c0.4,0.8,0.8,1.7,1.1,2.6l1.7,0.6c1.8,0.6,2.9,2.3,2.9,4.2
			s-1.2,3.5-2.9,4.2l-1.6,0.6c-0.3,1-0.7,1.9-1.1,2.8l0.7,1.5c0.7,1.4,0.6,3-0.2,4.3c-0.8,1.3-2.3,2.1-3.7,2.1c0,0,0,0,0,0
			c-0.7,0-1.3-0.1-1.9-0.4l-1.4-0.7c-1,0.5-1.9,0.9-3,1.3L24.2,37C23.6,38.8,21.9,39.9,20,39.9z M12.3,31.2c0.3,0,0.5,0.1,0.8,0.2
			c1.2,0.7,2.4,1.2,3.8,1.5c0.5,0.1,0.9,0.5,1.1,1l0.8,2.1c0.3,0.9,1.1,1,1.4,1c0.2,0,1-0.1,1.4-1l0.8-2.2c0.2-0.5,0.6-0.8,1-0.9
			c1.3-0.3,2.5-0.8,3.6-1.6c0.4-0.3,1-0.3,1.4-0.1l2.1,1c0.2,0.1,0.4,0.2,0.6,0.2l0,0c0.5,0,0.9-0.3,1.2-0.7
			c0.2-0.2,0.4-0.7,0.1-1.4l-1-2.1c0,0,0-0.1-0.1-0.1c-0.2-0.4-0.1-0.9,0.1-1.3c0.6-1.1,1.1-2.3,1.4-3.5c0.1-0.5,0.4-0.8,0.9-1
			c0.1,0,0.2-0.1,0.2-0.1l2.2-0.8c0.9-0.3,1-1.1,1-1.4c0-0.2-0.1-1-1-1.4l-2.2-0.8c-0.1,0-0.2-0.1-0.3-0.1c-0.4-0.2-0.8-0.6-0.9-1
			c-0.3-1.2-0.8-2.3-1.4-3.3C31,13,31,12.5,31.1,12.1c0-0.1,0.1-0.2,0.1-0.3l1-2.2c0.3-0.6,0.1-1.1-0.1-1.4
			c-0.4-0.6-1.2-0.9-1.8-0.5l-2.1,1c-0.1,0.1-0.2,0.1-0.3,0.1C27.5,9,27,9,26.6,8.7c-1-0.6-2.2-1.1-3.3-1.4c-0.4-0.1-0.8-0.4-1-0.8
			c0-0.1-0.1-0.2-0.1-0.3L21.4,4c-0.3-0.9-1.1-1-1.4-1c-0.2,0-1,0.1-1.4,1l-0.8,2.2c0,0.1-0.1,0.1-0.1,0.2c-0.2,0.4-0.6,0.8-1,0.9
			c-1.2,0.3-2.4,0.8-3.5,1.4c-0.4,0.2-0.9,0.3-1.4,0.1c0,0-0.1,0-0.2-0.1l-2.1-1C8.9,7.4,8.1,7.6,7.7,8.3C7.5,8.6,7.4,9,7.6,9.6
			l0.9,2.2c0.1,0.2,0.1,0.4,0.1,0.6c0,1.1-0.5,2-1,2.9c-0.3,0.5-0.6,1.1-0.7,1.5c-0.1,0.5-0.5,0.9-0.9,1L4,18.6
			c-0.9,0.3-1,1.1-1,1.3c0,0.2,0.1,1,1,1.4l2.1,0.8c0.5,0.2,0.8,0.6,1,1.1c0.3,1.3,0.8,2.6,1.5,3.8c0.3,0.4,0.3,1,0.1,1.4l-1,2
			c-0.3,0.6-0.1,1.1,0.1,1.4c0.4,0.6,1.2,0.9,1.8,0.5l2-1C11.9,31.2,12.1,31.2,12.3,31.2z M20,29.7c-5.2,0-9.5-4.3-9.5-9.5
			c0-5.2,4.3-9.5,9.5-9.5c5.2,0,9.5,4.3,9.5,9.5C29.5,25.5,25.2,29.7,20,29.7z M20,13.8c-3.6,0-6.5,2.9-6.5,6.5
			c0,3.6,2.9,6.5,6.5,6.5s6.5-2.9,6.5-6.5C26.5,16.7,23.6,13.8,20,13.8z"/>
		<path id="path-2_13_" class="st0" d="M48.1,52c-1.5,0-2.8-0.9-3.3-2.3L44.6,49c-0.6-0.2-1.2-0.4-1.7-0.7l-0.7,0.3
			c-1.6,0.7-3.5,0.2-4.4-1.3c-0.6-1-0.7-2.3-0.2-3.3l0.3-0.6c-0.3-0.6-0.5-1.2-0.7-1.7l-0.7-0.3C34.9,40.8,34,39.5,34,38
			c0-1.5,0.9-2.7,2.3-3.2l0.5-0.2c0-0.1,0.1-0.2,0.1-0.4c0.2-0.4,0.3-0.9,0.3-1.2L37,31.9c-0.4-1-0.3-2,0.3-2.9
			c1-1.6,3.2-2.3,4.9-1.5l0.8,0.4c0.5-0.2,1-0.4,1.5-0.6l0.3-0.9c0.5-1.4,1.8-2.3,3.3-2.3c1.5,0,2.8,0.9,3.3,2.3l0.3,0.9
			c0.5,0.2,1,0.4,1.4,0.6l0.9-0.4c1.6-0.7,3.5-0.2,4.4,1.3c0.6,1,0.7,2.3,0.2,3.3L58.2,33c0.2,0.5,0.4,0.9,0.6,1.4l0.9,0.3
			c1.4,0.5,2.3,1.8,2.3,3.3c0,1.5-0.9,2.8-2.3,3.3l-0.9,0.3c-0.2,0.5-0.4,1-0.6,1.5l0.4,0.8c0.5,1.1,0.4,2.3-0.2,3.3
			c-0.6,1-1.8,1.6-2.9,1.6l0,0c-0.5,0-1-0.1-1.5-0.3l-0.7-0.3c-0.5,0.3-1.1,0.5-1.6,0.7l-0.3,0.7C50.9,51.1,49.6,52,48.1,52z
			 M42.9,45.1c0.3,0,0.5,0.1,0.8,0.2c0.7,0.5,1.6,0.8,2.4,1c0.5,0.1,0.9,0.5,1.1,1l0.5,1.4c0.1,0.3,0.3,0.3,0.5,0.3s0.4-0.1,0.5-0.3
			l0.5-1.5c0.2-0.5,0.6-0.8,1-0.9c0.8-0.2,1.6-0.5,2.3-1c0.4-0.3,1-0.3,1.4-0.1l1.4,0.7c0.1,0,0.1,0.1,0.2,0.1l0,0
			c0.2,0,0.3-0.1,0.4-0.2c0.1-0.2,0-0.4,0-0.5l-0.7-1.4c0,0,0-0.1-0.1-0.1c-0.2-0.4-0.1-0.9,0.1-1.3c0.4-0.7,0.7-1.4,0.9-2.2
			c0.1-0.5,0.5-0.9,0.9-1c0,0,0.1-0.1,0.1-0.1l1.5-0.5c0.3-0.1,0.3-0.3,0.3-0.5s-0.1-0.4-0.3-0.5l-1.5-0.5C57.2,37,57.1,37,57,37
			c-0.4-0.2-0.7-0.5-0.8-1c-0.2-0.7-0.5-1.5-0.9-2.1C55,33.5,55,33,55.2,32.6c0-0.1,0.1-0.2,0.1-0.3l0.7-1.5c0-0.1,0.1-0.2,0-0.5
			c-0.1-0.2-0.4-0.3-0.6-0.2l-1.4,0.7c-0.1,0-0.2,0.1-0.3,0.1c-0.4,0.2-0.9,0.1-1.3-0.1c-0.7-0.4-1.4-0.7-2.1-0.9
			c-0.4-0.1-0.8-0.4-1-0.9c0-0.1-0.1-0.2-0.1-0.2l-0.5-1.5c-0.1-0.3-0.3-0.3-0.5-0.3c-0.2,0-0.4,0.1-0.5,0.3l-0.5,1.5
			c0,0-0.1,0.1-0.1,0.2c-0.2,0.4-0.6,0.8-1,0.9c-0.8,0.2-1.5,0.5-2.2,0.9c-0.4,0.2-0.9,0.3-1.3,0.1c0,0-0.1-0.1-0.2-0.1l-1.4-0.7
			c-0.3-0.2-0.8,0.1-1.1,0.4c-0.1,0.1-0.1,0.2,0,0.3c0.1,0.1,0.1,0.3,0.1,0.4l0.2,1.4c0,0.1,0,0.2,0,0.2c0,0.8-0.2,1.5-0.5,2.2
			c-0.1,0.3-0.2,0.6-0.3,0.9c-0.1,0.5-0.4,0.8-0.9,1l-1.2,0.5C37.1,37.6,37,37.7,37,38c0,0.1,0,0.4,0.4,0.5l1.5,0.5
			c0.5,0.2,0.9,0.6,1,1.1c0.2,0.8,0.5,1.6,1,2.4c0.3,0.4,0.3,1,0.1,1.4l-0.6,1.4c0,0.1-0.1,0.2,0,0.5c0.1,0.2,0.4,0.3,0.6,0.2
			l1.4-0.6C42.4,45.2,42.7,45.1,42.9,45.1z M48.1,44.6c-3.5,0-6.4-2.9-6.4-6.4c0-3.5,2.9-6.4,6.4-6.4c3.5,0,6.4,2.9,6.4,6.4
			C54.5,41.8,51.6,44.6,48.1,44.6z M48.1,34.9c-1.9,0-3.4,1.5-3.4,3.4c0,1.9,1.5,3.4,3.4,3.4s3.4-1.5,3.4-3.4
			C51.5,36.4,49.9,34.9,48.1,34.9z"/>
	</g>
</g>
</svg>
