<svg id="Capa_1" data-name="Capa 1" xmlns="http://www.w3.org/2000/svg" viewBox="0 0 339.78 369.86"><defs><style>.cls-1{fill:#919191;}.cls-2{fill:#3a383a;}</style></defs><title>cogwheel-1</title><path class="cls-1" d="M337.85,209.27a155.75,155.75,0,0,0,0-48.67,50.55,50.55,0,0,0,10.19-63l-5.89-10.21a50.49,50.49,0,0,0-59.67-22.68,153.24,153.24,0,0,0-42.16-24.37A50.55,50.55,0,0,0,190.83,0H179a50.55,50.55,0,0,0-49.49,40.31A153.27,153.27,0,0,0,87.4,64.68,50.5,50.5,0,0,0,27.72,87.36L21.83,97.57A50.55,50.55,0,0,0,32,160.6a155.75,155.75,0,0,0,0,48.67,50.55,50.55,0,0,0-10.19,63l5.89,10.2A50.5,50.5,0,0,0,87.4,305.18a153.29,153.29,0,0,0,42.16,24.37A50.55,50.55,0,0,0,179,369.86h11.79a50.55,50.55,0,0,0,49.49-40.31,153.29,153.29,0,0,0,42.16-24.37,50.5,50.5,0,0,0,15.89,2.58h0a50.69,50.69,0,0,0,43.78-25.26L348,272.3a50.55,50.55,0,0,0-10.18-63Zm-25.93-51.43a130.78,130.78,0,0,1,0,54.19,12.5,12.5,0,0,0,5.7,13.25,25.38,25.38,0,0,1,8.76,34.52L320.49,270a25.51,25.51,0,0,1-34.29,9.66,12.5,12.5,0,0,0-14.35,1.7A128.85,128.85,0,0,1,225,308.46,12.5,12.5,0,0,0,216.33,320a25.38,25.38,0,0,1-25.51,24.84H179A25.38,25.38,0,0,1,153.53,320a12.5,12.5,0,0,0-8.64-11.56A128.82,128.82,0,0,1,98,281.36a12.49,12.49,0,0,0-14.34-1.7,25.17,25.17,0,0,1-12.15,3.1A25.62,25.62,0,0,1,49.37,270l-5.89-10.2a25.38,25.38,0,0,1,8.76-34.51A12.5,12.5,0,0,0,57.94,212a130.77,130.77,0,0,1,0-54.19,12.5,12.5,0,0,0-5.7-13.25,25.38,25.38,0,0,1-8.76-34.51l5.89-10.21a25.51,25.51,0,0,1,34.29-9.66A12.5,12.5,0,0,0,98,88.51a128.87,128.87,0,0,1,46.88-27.1,12.5,12.5,0,0,0,8.64-11.56A25.38,25.38,0,0,1,179,25h11.79a25.38,25.38,0,0,1,25.51,24.84A12.5,12.5,0,0,0,225,61.4a128.81,128.81,0,0,1,46.88,27.1,12.5,12.5,0,0,0,14.35,1.7,25.17,25.17,0,0,1,12.15-3.1A25.62,25.62,0,0,1,320.5,99.87l5.89,10.21a25.38,25.38,0,0,1-8.76,34.51A12.49,12.49,0,0,0,311.93,157.84Z" transform="translate(-15.04)"/><path class="cls-1" d="M184.93,74.94a110,110,0,1,0,110,110A110.12,110.12,0,0,0,184.93,74.94Zm0,195a85,85,0,1,1,85-85A85.09,85.09,0,0,1,184.93,269.93Z" transform="translate(-15.04)"/><path class="cls-2" d="M222,200.35a28.81,28.81,0,0,0-2.51-6.1,20.63,20.63,0,0,0-4.22-5.06,50.45,50.45,0,0,0-4.94-4,48.19,48.19,0,0,0-6-3.39q-3.82-1.87-6.06-2.79t-6.46-2.51q-3.75-1.43-5.58-2.19t-4.82-2.15a28.11,28.11,0,0,1-4.46-2.47,35.08,35.08,0,0,1-3.15-2.63,9,9,0,0,1-2.35-3.31,10.72,10.72,0,0,1,4.11-12.68q4.78-3.43,12.36-3.43a26.57,26.57,0,0,1,6.82.92,35.65,35.65,0,0,1,5.94,2.07,41.25,41.25,0,0,1,4.67,2.55q2.19,1.4,3.11,2.11c.61.48,1,.8,1.16,1a2.54,2.54,0,0,0,2.15.56,2.18,2.18,0,0,0,1.83-1.28L220,143.91a2.31,2.31,0,0,0-.4-3c-.32-.32-.72-.69-1.2-1.12s-1.51-1.2-3.11-2.31a38.48,38.48,0,0,0-5.06-3,51.19,51.19,0,0,0-6.94-2.67,44.22,44.22,0,0,0-8.81-1.83v-14a2.45,2.45,0,0,0-2.55-2.55H181.14a2.59,2.59,0,0,0-2.55,2.55v14.35q-12.52,2.39-20.33,10.68a27.26,27.26,0,0,0-7.81,19.29,27.68,27.68,0,0,0,.68,6.22,31.83,31.83,0,0,0,1.67,5.3,19.51,19.51,0,0,0,2.83,4.62,49.52,49.52,0,0,0,3.47,3.91,28.15,28.15,0,0,0,4.27,3.39q2.63,1.75,4.51,2.83t5,2.47q3.11,1.4,4.9,2.11l4.9,2q4.3,1.67,6.38,2.59t5.26,2.55a21.84,21.84,0,0,1,4.66,3,15,15,0,0,1,2.67,3.35,8.08,8.08,0,0,1,1.2,4.23,11.16,11.16,0,0,1-4.9,9.72A19.33,19.33,0,0,1,186.56,222a27.85,27.85,0,0,1-5.9-.64,41.65,41.65,0,0,1-19.37-10l-.16-.16a2,2,0,0,0-1.91-.72,2.48,2.48,0,0,0-1.83,1l-8.21,10.76a2.42,2.42,0,0,0,.16,3.27q.4.48,1.4,1.44a46.14,46.14,0,0,0,3.71,3,48.92,48.92,0,0,0,14,7.37,50.33,50.33,0,0,0,10.16,2.47v14a2.59,2.59,0,0,0,2.55,2.55h10.76a2.45,2.45,0,0,0,2.55-2.55v-14a34.23,34.23,0,0,0,20.61-10.88,30.33,30.33,0,0,0,7.93-21A26.21,26.21,0,0,0,222,200.35Z" transform="translate(-15.04)"/></svg>