<?xml version="1.0" encoding="utf-8"?>
<!-- Generator: Adobe Illustrator 21.0.2, SVG Export Plug-In . SVG Version: 6.00 Build 0)  -->
<svg version="1.1" id="Layer_1" xmlns="http://www.w3.org/2000/svg" xmlns:xlink="http://www.w3.org/1999/xlink" x="0px" y="0px"
	 viewBox="0 0 352 512" style="enable-background:new 0 0 352 512;" xml:space="preserve">
<style type="text/css">
	.st0{fill:#ED200B;}
</style>
<path class="st0" d="M176,0C78.8,0,0,78.8,0,176v160c0,97.2,78.8,176,176,176s176-78.8,176-176V176C352,78.8,273.2,0,176,0z
	 M176,128L176,128L176,128c8.7,0,16,7.3,16,16v32c0,8.7-7.3,16-16,16c-8.7,0-16-7.3-16-16v-32C160,135.3,167.3,128,176,128z
	 M320,336c0,39.8-16.1,75.7-42.2,101.8c-26.1,26.1-62,42.2-101.8,42.2s-75.7-16.1-101.8-42.2S32,375.8,32,336V176
	c0-39.8,16.1-75.7,42.2-101.8C96.8,51.7,126.6,36.6,160,33v66c-18.6,6.6-32,24.2-32,45v32c0.1,26.5,21.5,47.9,48,48
	c26.5-0.1,47.9-21.5,48-48v-32c0-20.9-13.4-38.4-32-45V33c33.4,3.7,63.3,18.7,85.8,41.2c26.1,26.1,42.2,62,42.2,101.8V336z"/>
</svg>
