<?xml version="1.0" encoding="utf-8"?>
<!-- Generator: Adobe Illustrator 21.0.2, SVG Export Plug-In . SVG Version: 6.00 Build 0)  -->
<svg version="1.1" id="Capa_1" xmlns="http://www.w3.org/2000/svg" xmlns:xlink="http://www.w3.org/1999/xlink" x="0px" y="0px"
	 viewBox="0 0 44.6 38.3" style="enable-background:new 0 0 44.6 38.3;" xml:space="preserve">
<style type="text/css">
	.st0{fill:#ED200B;}
</style>
<g>
	<g>
		<path class="st0" d="M23.3,35.6c-1.2,1.6-3,2.6-5,2.7c-2,0.1-3.9-0.7-5.2-2.2L1.3,23c-1.9-2.1-1.7-5.3,0.4-7.2
			c2.1-1.9,5.3-1.7,7.2,0.4l8.4,9.3c0.1,0.1,0.3,0.2,0.5,0.2c0.2,0,0.4-0.1,0.5-0.2L35.4,2.1c1.7-2.3,4.8-2.7,7.1-1.1
			c2.3,1.7,2.7,4.8,1.1,7.1L23.3,35.6z"/>
	</g>
</g>
</svg>
