<?xml version="1.0" encoding="utf-8"?>
<!-- Generator: Adobe Illustrator 21.0.2, SVG Export Plug-In . SVG Version: 6.00 Build 0)  -->
<svg version="1.1" id="Capa_1" xmlns="http://www.w3.org/2000/svg" xmlns:xlink="http://www.w3.org/1999/xlink" x="0px" y="0px"
	 viewBox="0 0 612 362.3" style="enable-background:new 0 0 612 362.3;" xml:space="preserve" fill="#fff">
<g>
	<g>
		<path d="M601.5,153.9c-6.6-7.8-13.6-15-20.3-21.6C542.4,94,500.7,62,454.6,38.2c-33-17.1-65.4-28.3-96.7-33.9
			C339,0.9,321.7,0,306.4,0c-16,0-33.7,0.8-52.5,4.3c-31.7,5.8-64.1,17.1-96.7,33.9C112.4,61.3,70.4,93,30.5,132.3
			c-7.7,7.6-14.4,14.6-20.3,21.6c-13.7,16.2-13.7,37.6,0,53.8c16.2,19.3,37.9,39.5,65.1,61.2c57.9,46.1,114.6,75.4,170.2,87.4
			c19.6,4.2,39.9,6,60.8,6c20.3,0,40.3-1.8,59.8-6c56.2-12.1,113.1-41.2,170.8-87.4c29-23.2,50.1-43.9,64.5-61.2
			C615.4,191.1,615.6,170.4,601.5,153.9z M573.6,183.8c-14.6,18-34.8,36.6-59.8,56.5c-52.4,41.9-104,69.1-155.2,79.8
			c-18.9,3.9-36.2,5.3-52.2,5.3h-1c-16.3,0-33.3-1.5-51.5-5.3c-50.6-10.8-102.6-37.3-155.9-79.8c-25.1-20-44.9-38.9-59.2-56.5
			c-2.3-1.7-2.3-3.7,0-6c1.7-2.3,4.6-5.7,8.6-10c4.2-4.4,7.3-7.6,9-9.6c38.6-37.9,77.9-66.5,117.7-86.4
			c31.7-15.9,60.5-26.5,86.4-30.9c15-2.6,30.2-4,45.9-4c15,0,29.9,1.3,45.5,4c26.3,4.6,55.1,15.1,86.4,30.9
			c40.5,20.4,79.4,48.9,117,86.4c8.6,8.6,14.7,15.2,18.3,19.6C575.4,180.1,575.3,182.1,573.6,183.8z"/>
		<path d="M306.4,64.1c-32.2,0-60.2,11.3-83.1,34.2c-22.9,22.9-34.2,50.5-34.2,82.8c0,32.2,11.2,59.6,34.2,82.4
			c22.9,22.7,50.9,33.9,83.1,33.9c32.2,0,59.5-11.3,82.1-33.9c22.9-22.9,34.2-50.2,34.2-82.4c0-32.2-11.4-59.7-34.2-82.8
			C365.8,75.5,338.6,64.1,306.4,64.1z M362.6,237.6c-15.6,15.6-34.2,23.3-56.2,23.3c-22.3,0-41.2-8-56.8-23.6
			c-15.6-15.6-23.6-34.6-23.6-56.2c0-22.3,8-40.9,23.6-56.5c15.6-15.6,34.6-23.6,56.8-23.6c22.3,0,40.8,8.1,56.2,23.6
			c15.5,15.7,23.3,34.2,23.3,56.5C385.8,203.1,378.2,222,362.6,237.6z"/>
	</g>
</g>
</svg>
