<?xml version="1.0" encoding="utf-8"?>
<!-- Generator: Adobe Illustrator 21.0.2, SVG Export Plug-In . SVG Version: 6.00 Build 0)  -->
<svg version="1.1" id="Capa_1" xmlns="http://www.w3.org/2000/svg" xmlns:xlink="http://www.w3.org/1999/xlink" x="0px" y="0px"
	 viewBox="0 0 576.5 469" style="enable-background:new 0 0 576.5 469;" xml:space="preserve">
<style type="text/css">
	.st0{fill:#58585a;}
</style>
<g>
	<g>
		<path class="st0" d="M8,393.5c-0.4,0.8-1.4,1.2-3.1,1.2H3.1c-2-1.2-3.1-2.7-3.1-4.3V146.3c0-2,0.8-3.5,2.4-4.3
			c1.6-0.4,3.3-0.4,4.9,0l162.8,93c1.6,0.8,2.4,2,2.4,3.7c0,2-0.6,3.3-1.8,3.7L8,393.5z M555.1,460.8c1.2,1.6,1.6,3.3,1.2,4.9
			c-1.2,2-2.9,3.1-4.9,3.1H19c-2.9,0-5.9-1-9.2-3.1c-1.6-0.8-2.4-2-2.4-3.7c0-1.6,0.6-2.9,1.8-3.7l207.5-192.8
			c1.6-1.6,3.5-1.8,5.5-0.6l55.1,31.2c7.8,4.5,15.7,4.5,23.9,0l62.4-36.7c2.4-1.6,4.3-1.4,5.5,0.6L555.1,460.8z M574.1,138.3
			c1.6,0.8,2.4,2.2,2.4,4.3v258.3c0,2-1,3.5-3.1,4.3c-0.4,0.4-1,0.6-1.8,0.6c-1.2,0-2.4-0.6-3.7-1.8L413.1,236.8
			c-1.2-1.2-1.6-2.4-1.2-3.7c0-1.6,0.6-2.9,1.8-3.7l155.4-91.2C570.4,137.1,572,137.1,574.1,138.3z M556.9,0
			c5.7,0,10.4,1.8,14.1,5.5s5.5,8.2,5.5,13.5v58.8c0,2.9-1.4,4.3-4.3,4.3c-2.4,0.4-4.7,1.4-6.7,3.1L291.3,246
			c-0.4,0.4-1.2,0.6-2.4,0.6s-2-0.2-2.4-0.6L3.7,85.1C1.2,83.4,0,81.8,0,80.2V19c0-5.3,1.8-9.8,5.5-13.5S13.7,0,19,0L556.9,0
			L556.9,0z"/>
	</g>
</g>
</svg>
