<?xml version="1.0" encoding="utf-8"?>
<!-- Generator: Adobe Illustrator 21.0.2, SVG Export Plug-In . SVG Version: 6.00 Build 0)  -->
<svg version="1.1" id="Capa_1" xmlns="http://www.w3.org/2000/svg" xmlns:xlink="http://www.w3.org/1999/xlink" x="0px" y="0px"
	 viewBox="0 0 32.9 46.4" style="enable-background:new 0 0 32.9 46.4;" xml:space="preserve">
<style type="text/css">
	.st0{fill:#FFFFFF;}
</style>
<path class="st0" d="M32.9,16.4C32.9,7.4,25.5,0,16.4,0C7.4,0,0,7.4,0,16.4c0,1.8,0.3,3.5,0.8,5.1l0,0c0,0,1.4,6.2,15.5,24.7
	c8.1-10.6,12-17.2,13.9-20.9C31.9,22.8,32.9,19.8,32.9,16.4z M16.3,27c-5.8,0-10.4-4.7-10.4-10.4c0-5.8,4.7-10.4,10.4-10.4
	s10.4,4.7,10.4,10.4C26.7,22.4,22,27,16.3,27z"/>
<path class="st0" d="M9.7,46.4c0,0-0.1-0.1-0.1-0.1c0,0-0.1,0.1-0.1,0.1H9.7z"/>
</svg>
