<?xml version="1.0" encoding="utf-8"?>
<!-- Generator: Adobe Illustrator 21.0.2, SVG Export Plug-In . SVG Version: 6.00 Build 0)  -->
<svg version="1.1" id="Capa_1" xmlns="http://www.w3.org/2000/svg" xmlns:xlink="http://www.w3.org/1999/xlink" x="0px" y="0px"
	 viewBox="0 0 73.2 62" style="enable-background:new 0 0 73.2 62;" xml:space="preserve">
<style type="text/css">
	.st0{fill:#FFFFFF;}
</style>
<g>
	<g id="Navigation">
		<g>
			<path class="st0" d="M4.2,9h64.7c2.3,0,4.2-1.9,4.2-4.3c0-2.4-1.9-4.3-4.2-4.3H4.2C1.9,0.4,0,2.3,0,4.7C0,7.1,1.9,9,4.2,9z
				 M68.9,26.9H4.2c-2.3,0-4.2,1.9-4.2,4.3c0,2.4,1.9,4.3,4.2,4.3h64.7c2.3,0,4.2-1.9,4.2-4.3C73.2,28.8,71.3,26.9,68.9,26.9z
				 M68.9,53.4H4.2c-2.3,0-4.2,1.9-4.2,4.3C0,60.1,1.9,62,4.2,62h64.7c2.3,0,4.2-1.9,4.2-4.3C73.2,55.3,71.3,53.4,68.9,53.4z"/>
		</g>
	</g>
</g>
</svg>
